<svg width="200" height="50" viewBox="0 0 200 50" fill="none" xmlns="http://www.w3.org/2000/svg">
<mask id="path-1-inside-1_478_3179" fill="white">
<path d="M-4.37114e-07 5C-1.95703e-07 2.23858 2.23858 1.95703e-07 5 4.37114e-07L195 1.70474e-05C197.761 1.72889e-05 200 2.23859 200 5.00002L200 45C200 47.7614 197.761 50 195 50L4.99999 50C2.23857 50 -4.17544e-06 47.7614 -3.93402e-06 45L-4.37114e-07 5Z"/>
</mask>
<path d="M4.99999 50L4.99999 49L4.99999 50ZM195 50L195 51L195 50ZM195 1.70474e-05L195 1.00002L195 1.70474e-05ZM5 4.37114e-07L5 -1L5 4.37114e-07ZM5 1L195 1.00002L195 -0.999983L5 -1L5 1ZM199 5.00002L199 45L201 45L201 5.00002L199 5.00002ZM195 49L4.99999 49L4.99999 51L195 51L195 49ZM0.999996 45L1 5L-1 5L-1 45L0.999996 45ZM4.99999 49C2.79085 49 0.999996 47.2091 0.999996 45L-1 45C-1 48.3137 1.68628 51 4.99999 51L4.99999 49ZM199 45C199 47.2092 197.209 49 195 49L195 51C198.314 51 201 48.3137 201 45L199 45ZM195 1.00002C197.209 1.00002 199 2.79088 199 5.00002L201 5.00002C201 1.68631 198.314 -0.999983 195 -0.999983L195 1.00002ZM5 -1C1.68629 -1 -1 1.68629 -1 5L1 5C1 2.79086 2.79086 1 5 1L5 -1Z" fill="#0091FF" mask="url(#path-1-inside-1_478_3179)"/>
</svg>
