<svg width="429" height="210" viewBox="0 0 429 210" fill="none" xmlns="http://www.w3.org/2000/svg">
<path opacity="0.2" fill-rule="evenodd" clip-rule="evenodd" d="M408.397 210C419.442 210 428.397 201.046 428.397 190L428.397 20C428.397 8.9543 419.442 -7.8281e-07 408.397 -1.74846e-06L106.585 -2.81336e-05C101.518 -2.85766e-05 96.6398 1.92341 92.936 5.38164L6.3507 86.2276C2.2998 90.01 4.05446e-05 95.3037 4.00601e-05 100.846L3.2266e-05 190C3.13004e-05 201.046 8.95432 210 20 210L408.397 210Z" fill="#44576E"/>
<mask id="path-2-inside-1_437_3227" fill="white">
<path fill-rule="evenodd" clip-rule="evenodd" d="M408.397 210C419.442 210 428.397 201.046 428.397 190L428.397 20C428.397 8.9543 419.442 -7.8281e-07 408.397 -1.74846e-06L106.585 -2.81336e-05C101.518 -2.85766e-05 96.6398 1.92341 92.936 5.38164L6.3507 86.2276C2.2998 90.01 4.05446e-05 95.3037 4.00601e-05 100.846L3.2266e-05 190C3.13004e-05 201.046 8.95432 210 20 210L408.397 210Z"/>
</mask>
<path d="M6.3507 86.2276L5.327 85.1312L6.3507 86.2276ZM92.936 5.38164L91.9123 4.28527L92.936 5.38164ZM426.897 190C426.897 200.217 418.614 208.5 408.397 208.5L408.397 211.5C420.271 211.5 429.897 201.874 429.897 190L426.897 190ZM426.897 20L426.897 190L429.897 190L429.897 20L426.897 20ZM408.397 1.5C418.614 1.5 426.897 9.78273 426.897 20L429.897 20C429.897 8.12587 420.271 -1.5 408.397 -1.5L408.397 1.5ZM106.585 1.49997L408.397 1.5L408.397 -1.5L106.585 -1.50003L106.585 1.49997ZM91.9123 4.28527L5.327 85.1312L7.3744 87.324L93.9597 6.47802L91.9123 4.28527ZM1.50003 190L1.50004 100.846L-1.49996 100.846L-1.49997 190L1.50003 190ZM20 208.5C9.78274 208.5 1.50003 200.217 1.50003 190L-1.49997 190C-1.49997 201.874 8.12589 211.5 20 211.5L20 208.5ZM408.397 208.5L20 208.5L20 211.5L408.397 211.5L408.397 208.5ZM5.327 85.1312C0.972283 89.1973 -1.49996 94.888 -1.49996 100.846L1.50004 100.846C1.50004 95.7194 3.62732 90.8227 7.3744 87.324L5.327 85.1312ZM106.585 -1.50003C101.138 -1.50003 95.8938 0.567668 91.9123 4.28527L93.9597 6.47802C97.3857 3.27915 101.898 1.49997 106.585 1.49997L106.585 -1.50003Z" fill="url(#paint0_linear_437_3227)" mask="url(#path-2-inside-1_437_3227)"/>
<path d="M6.3507 86.2276L5.327 85.1312L6.3507 86.2276ZM92.936 5.38164L91.9123 4.28527L92.936 5.38164ZM426.897 190C426.897 200.217 418.614 208.5 408.397 208.5L408.397 211.5C420.271 211.5 429.897 201.874 429.897 190L426.897 190ZM426.897 20L426.897 190L429.897 190L429.897 20L426.897 20ZM408.397 1.5C418.614 1.5 426.897 9.78273 426.897 20L429.897 20C429.897 8.12587 420.271 -1.5 408.397 -1.5L408.397 1.5ZM106.585 1.49997L408.397 1.5L408.397 -1.5L106.585 -1.50003L106.585 1.49997ZM91.9123 4.28527L5.327 85.1312L7.3744 87.324L93.9597 6.47802L91.9123 4.28527ZM1.50003 190L1.50004 100.846L-1.49996 100.846L-1.49997 190L1.50003 190ZM20 208.5C9.78274 208.5 1.50003 200.217 1.50003 190L-1.49997 190C-1.49997 201.874 8.12589 211.5 20 211.5L20 208.5ZM408.397 208.5L20 208.5L20 211.5L408.397 211.5L408.397 208.5ZM5.327 85.1312C0.972283 89.1973 -1.49996 94.888 -1.49996 100.846L1.50004 100.846C1.50004 95.7194 3.62732 90.8227 7.3744 87.324L5.327 85.1312ZM106.585 -1.50003C101.138 -1.50003 95.8938 0.567668 91.9123 4.28527L93.9597 6.47802C97.3857 3.27915 101.898 1.49997 106.585 1.49997L106.585 -1.50003Z" fill="url(#paint1_linear_437_3227)" mask="url(#path-2-inside-1_437_3227)"/>
<defs>
<linearGradient id="paint0_linear_437_3227" x1="458.384" y1="231" x2="310.79" y2="126.167" gradientUnits="userSpaceOnUse">
<stop stop-color="#ADC9D9"/>
<stop offset="1" stop-color="#ADC9D9" stop-opacity="0"/>
</linearGradient>
<linearGradient id="paint1_linear_437_3227" x1="28.9168" y1="19" x2="103.559" y2="80.451" gradientUnits="userSpaceOnUse">
<stop stop-color="#ADC9D9"/>
<stop offset="1" stop-color="#ADC9D9" stop-opacity="0"/>
</linearGradient>
</defs>
</svg>
