<svg width="429" height="210" viewBox="0 0 429 210" fill="none" xmlns="http://www.w3.org/2000/svg">
<mask id="path-1-inside-1_466_3429" fill="white">
<path fill-rule="evenodd" clip-rule="evenodd" d="M20 210C8.95431 210 -7.8281e-07 201.046 -1.74846e-06 190L-1.66103e-05 20C-1.7576e-05 8.9543 8.95428 -7.82808e-07 20 -1.74845e-06L321.811 -2.81336e-05C326.878 -2.85766e-05 331.757 1.92341 335.461 5.38164L422.046 86.2276C426.097 90.01 428.397 95.3037 428.397 100.846L428.397 190C428.397 201.046 419.442 210 408.397 210L20 210Z"/>
</mask>
<path d="M20 210L20 209L20 210ZM408.397 210L408.397 211L408.397 210ZM422.046 86.2276L421.363 86.9585L422.046 86.2276ZM335.461 5.38164L334.778 6.11256L335.461 5.38164ZM0.999998 190C0.999999 200.493 9.50659 209 20 209L20 211C8.40202 211 -1 201.598 -1 190L0.999998 190ZM0.999983 20L0.999998 190L-1 190L-1.00002 20L0.999983 20ZM20 0.999998C9.50656 0.999999 0.999982 9.50658 0.999983 20L-1.00002 20C-1.00002 8.40202 8.40199 -1 20 -1L20 0.999998ZM321.811 0.999972L20 0.999998L20 -1L321.811 -1.00003L321.811 0.999972ZM336.143 4.65073L422.728 85.4967L421.363 86.9585L334.778 6.11256L336.143 4.65073ZM427.397 190L427.397 100.846L429.397 100.846L429.397 190L427.397 190ZM408.397 209C418.89 209 427.397 200.493 427.397 190L429.397 190C429.397 201.598 419.995 211 408.397 211L408.397 209ZM20 209L408.397 209L408.397 211L20 211L20 209ZM422.728 85.4967C426.982 89.4682 429.397 95.0266 429.397 100.846L427.397 100.846C427.397 95.5808 425.212 90.5518 421.363 86.9585L422.728 85.4967ZM321.811 -1.00003C327.132 -1.00003 332.254 1.01958 336.143 4.65073L334.778 6.11256C331.26 2.82724 326.625 0.999971 321.811 0.999972L321.811 -1.00003Z" fill="#0091FF" mask="url(#path-1-inside-1_466_3429)"/>
</svg>
