<svg width="429" height="210" viewBox="0 0 429 210" fill="none" xmlns="http://www.w3.org/2000/svg">
<path opacity="0.2" fill-rule="evenodd" clip-rule="evenodd" d="M20 210C8.95431 210 -7.8281e-07 201.046 -1.74846e-06 190L-1.66103e-05 20C-1.7576e-05 8.9543 8.95428 -7.8281e-07 20 -1.74846e-06L321.811 -2.81336e-05C326.878 -2.85766e-05 331.757 1.92341 335.461 5.38164L422.046 86.2276C426.097 90.01 428.397 95.3037 428.397 100.846L428.397 190C428.397 201.046 419.442 210 408.397 210L20 210Z" fill="#44576E"/>
<mask id="path-2-inside-1_437_3234" fill="white">
<path fill-rule="evenodd" clip-rule="evenodd" d="M20 210C8.95431 210 -7.8281e-07 201.046 -1.74846e-06 190L-1.66103e-05 20C-1.7576e-05 8.9543 8.95428 -7.8281e-07 20 -1.74846e-06L321.811 -2.81336e-05C326.878 -2.85766e-05 331.757 1.92341 335.461 5.38164L422.046 86.2276C426.097 90.01 428.397 95.3037 428.397 100.846L428.397 190C428.397 201.046 419.442 210 408.397 210L20 210Z"/>
</mask>
<path d="M422.046 86.2276L423.07 85.1312L422.046 86.2276ZM335.461 5.38164L336.484 4.28527L335.461 5.38164ZM1.5 190C1.5 200.217 9.78273 208.5 20 208.5L20 211.5C8.12588 211.5 -1.5 201.874 -1.5 190L1.5 190ZM1.49998 20L1.5 190L-1.5 190L-1.50002 20L1.49998 20ZM20 1.5C9.78271 1.5 1.49998 9.78273 1.49998 20L-1.50002 20C-1.50002 8.12587 8.12585 -1.5 20 -1.5L20 1.5ZM321.811 1.49997L20 1.5L20 -1.5L321.811 -1.50003L321.811 1.49997ZM336.484 4.28527L423.07 85.1312L421.022 87.324L334.437 6.47802L336.484 4.28527ZM426.897 190L426.897 100.846L429.897 100.846L429.897 190L426.897 190ZM408.397 208.5C418.614 208.5 426.897 200.217 426.897 190L429.897 190C429.897 201.874 420.271 211.5 408.397 211.5L408.397 208.5ZM20 208.5L408.397 208.5L408.397 211.5L20 211.5L20 208.5ZM423.07 85.1312C427.424 89.1973 429.897 94.888 429.897 100.846L426.897 100.846C426.897 95.7194 424.769 90.8227 421.022 87.324L423.07 85.1312ZM321.811 -1.50003C327.259 -1.50003 332.503 0.567668 336.484 4.28527L334.437 6.47802C331.011 3.27915 326.498 1.49997 321.811 1.49997L321.811 -1.50003Z" fill="url(#paint0_linear_437_3234)" mask="url(#path-2-inside-1_437_3234)"/>
<path d="M422.046 86.2276L423.07 85.1312L422.046 86.2276ZM335.461 5.38164L336.484 4.28527L335.461 5.38164ZM1.5 190C1.5 200.217 9.78273 208.5 20 208.5L20 211.5C8.12588 211.5 -1.5 201.874 -1.5 190L1.5 190ZM1.49998 20L1.5 190L-1.5 190L-1.50002 20L1.49998 20ZM20 1.5C9.78271 1.5 1.49998 9.78273 1.49998 20L-1.50002 20C-1.50002 8.12587 8.12585 -1.5 20 -1.5L20 1.5ZM321.811 1.49997L20 1.5L20 -1.5L321.811 -1.50003L321.811 1.49997ZM336.484 4.28527L423.07 85.1312L421.022 87.324L334.437 6.47802L336.484 4.28527ZM426.897 190L426.897 100.846L429.897 100.846L429.897 190L426.897 190ZM408.397 208.5C418.614 208.5 426.897 200.217 426.897 190L429.897 190C429.897 201.874 420.271 211.5 408.397 211.5L408.397 208.5ZM20 208.5L408.397 208.5L408.397 211.5L20 211.5L20 208.5ZM423.07 85.1312C427.424 89.1973 429.897 94.888 429.897 100.846L426.897 100.846C426.897 95.7194 424.769 90.8227 421.022 87.324L423.07 85.1312ZM321.811 -1.50003C327.259 -1.50003 332.503 0.567668 336.484 4.28527L334.437 6.47802C331.011 3.27915 326.498 1.49997 321.811 1.49997L321.811 -1.50003Z" fill="url(#paint1_linear_437_3234)" mask="url(#path-2-inside-1_437_3234)"/>
<defs>
<linearGradient id="paint0_linear_437_3234" x1="-29.9878" y1="231" x2="117.606" y2="126.167" gradientUnits="userSpaceOnUse">
<stop stop-color="#ADC9D9"/>
<stop offset="1" stop-color="#ADC9D9" stop-opacity="0"/>
</linearGradient>
<linearGradient id="paint1_linear_437_3234" x1="399.48" y1="19" x2="324.838" y2="80.451" gradientUnits="userSpaceOnUse">
<stop stop-color="#ADC9D9"/>
<stop offset="1" stop-color="#ADC9D9" stop-opacity="0"/>
</linearGradient>
</defs>
</svg>
