<svg width="39" height="39" viewBox="0 0 39 39" fill="none" xmlns="http://www.w3.org/2000/svg">
<path d="M19.5 0C8.736 0 0 8.736 0 19.5C0 30.264 8.736 39 19.5 39C30.264 39 39 30.264 39 19.5C39 8.736 30.264 0 19.5 0ZM19.89 37.4009V33.54H19.11V37.4009C9.516 37.206 1.794 29.4449 1.599 19.89H5.46V19.11H1.599C1.794 9.516 9.516 1.794 19.11 1.56V5.46H19.89V1.56C29.484 1.755 37.206 9.516 37.4009 19.0709H33.54V19.8509H37.4009C37.206 29.484 29.484 37.206 19.89 37.4009Z" fill="white"/>
<path d="M29.9131 12.5971L21.3722 17.511C20.8651 17.043 20.2411 16.7701 19.5002 16.7701C18.7591 16.7701 18.1351 17.043 17.6282 17.511L6.39621 11.0371L5.61621 12.4021L16.8482 18.915C16.8091 19.071 16.7702 19.2661 16.7702 19.5001C16.7702 21.021 17.9791 22.2301 19.5002 22.2301C21.0211 22.2301 22.2302 21.021 22.2302 19.5001C22.2302 19.2661 22.1911 19.071 22.1522 18.8761L30.6931 13.923L29.9131 12.5971ZM19.5002 21.4501C18.4082 21.4501 17.5502 20.5921 17.5502 19.5001C17.5502 18.4081 18.4082 17.5501 19.5002 17.5501C20.5922 17.5501 21.4502 18.4081 21.4502 19.5001C21.4502 20.5921 20.5922 21.4501 19.5002 21.4501Z" fill="white"/>
</svg>
