<svg width="683" height="197" viewBox="0 0 683 197" fill="none" xmlns="http://www.w3.org/2000/svg">
<path d="M0.5 4.84082H25.519V193.147H0.5V4.84082Z" fill="#0091FF"/>
<path d="M0.5 4.84082H25.519V193.147H0.5V4.84082Z" stroke="black"/>
<path d="M0.5 4.84082H25.519V193.147H0.5V4.84082Z" stroke="black" stroke-opacity="0.2"/>
<path d="M69.4925 192.906C80.5616 172.011 106.607 124.31 136.558 81.6165C151.713 60.0145 167.855 39.713 183.551 24.8173C199.273 9.8971 214.446 0.5 227.667 0.5C240.889 0.5 256.062 9.8971 271.784 24.8173C287.48 39.713 303.622 60.0145 318.776 81.6165C348.727 124.31 374.773 172.011 385.842 192.906H358.065C333.275 145.725 305.912 104.08 282.175 74.2057C270.285 59.2417 259.296 47.2203 249.987 38.9347C245.334 34.7923 241.089 31.5741 237.354 29.3887C233.629 27.2098 230.359 26.027 227.667 26.027C224.975 26.027 221.706 27.2098 217.981 29.3887C214.245 31.5741 210.001 34.7923 205.347 38.9347C196.039 47.2203 185.05 59.2417 173.16 74.2057C149.423 104.08 122.06 145.725 97.27 192.906H69.4925Z" fill="#0091FF"/>
<path d="M69.4925 192.906C80.5616 172.011 106.607 124.31 136.558 81.6165C151.713 60.0145 167.855 39.713 183.551 24.8173C199.273 9.8971 214.446 0.5 227.667 0.5C240.889 0.5 256.062 9.8971 271.784 24.8173C287.48 39.713 303.622 60.0145 318.776 81.6165C348.727 124.31 374.773 172.011 385.842 192.906H358.065C333.275 145.725 305.912 104.08 282.175 74.2057C270.285 59.2417 259.296 47.2203 249.987 38.9347C245.334 34.7923 241.089 31.5741 237.354 29.3887C233.629 27.2098 230.359 26.027 227.667 26.027C224.975 26.027 221.706 27.2098 217.981 29.3887C214.245 31.5741 210.001 34.7923 205.347 38.9347C196.039 47.2203 185.05 59.2417 173.16 74.2057C149.423 104.08 122.06 145.725 97.27 192.906H69.4925Z" stroke="black"/>
<path d="M69.4925 192.906C80.5616 172.011 106.607 124.31 136.558 81.6165C151.713 60.0145 167.855 39.713 183.551 24.8173C199.273 9.8971 214.446 0.5 227.667 0.5C240.889 0.5 256.062 9.8971 271.784 24.8173C287.48 39.713 303.622 60.0145 318.776 81.6165C348.727 124.31 374.773 172.011 385.842 192.906H358.065C333.275 145.725 305.912 104.08 282.175 74.2057C270.285 59.2417 259.296 47.2203 249.987 38.9347C245.334 34.7923 241.089 31.5741 237.354 29.3887C233.629 27.2098 230.359 26.027 227.667 26.027C224.975 26.027 221.706 27.2098 217.981 29.3887C214.245 31.5741 210.001 34.7923 205.347 38.9347C196.039 47.2203 185.05 59.2417 173.16 74.2057C149.423 104.08 122.06 145.725 97.27 192.906H69.4925Z" stroke="black" stroke-opacity="0.2"/>
<path d="M654.392 5.08194H682.172C671.122 26.0839 645.908 73.3718 616.788 115.621C602.055 136.997 586.335 157.064 570.956 171.782C555.552 186.523 540.59 195.8 527.368 195.8C514.207 195.8 499.275 186.509 483.882 171.748C468.514 157.011 452.786 136.922 438.038 115.531C408.89 73.2548 383.619 25.9708 372.566 5.08194H400.343C425.129 52.2579 451.648 93.4812 474.543 122.934C486.012 137.687 496.579 149.498 505.572 157.626C510.068 161.69 514.181 164.843 517.826 166.983C521.46 169.118 524.677 170.273 527.368 170.273C530.059 170.273 533.275 169.118 536.91 166.983C540.554 164.843 544.668 161.69 549.163 157.626C558.156 149.498 568.724 137.687 580.192 122.934C603.087 93.4812 629.607 52.2579 654.392 5.08194Z" fill="#0091FF"/>
<path d="M654.392 5.08194H682.172C671.122 26.0839 645.908 73.3718 616.788 115.621C602.055 136.997 586.335 157.064 570.956 171.782C555.552 186.523 540.59 195.8 527.368 195.8C514.207 195.8 499.275 186.509 483.882 171.748C468.514 157.011 452.786 136.922 438.038 115.531C408.89 73.2548 383.619 25.9708 372.566 5.08194H400.343C425.129 52.2579 451.648 93.4812 474.543 122.934C486.012 137.687 496.579 149.498 505.572 157.626C510.068 161.69 514.181 164.843 517.826 166.983C521.46 169.118 524.677 170.273 527.368 170.273C530.059 170.273 533.275 169.118 536.91 166.983C540.554 164.843 544.668 161.69 549.163 157.626C558.156 149.498 568.724 137.687 580.192 122.934C603.087 93.4812 629.607 52.2579 654.392 5.08194Z" stroke="black"/>
<path d="M654.392 5.08194H682.172C671.122 26.0839 645.908 73.3718 616.788 115.621C602.055 136.997 586.335 157.064 570.956 171.782C555.552 186.523 540.59 195.8 527.368 195.8C514.207 195.8 499.275 186.509 483.882 171.748C468.514 157.011 452.786 136.922 438.038 115.531C408.89 73.2548 383.619 25.9708 372.566 5.08194H400.343C425.129 52.2579 451.648 93.4812 474.543 122.934C486.012 137.687 496.579 149.498 505.572 157.626C510.068 161.69 514.181 164.843 517.826 166.983C521.46 169.118 524.677 170.273 527.368 170.273C530.059 170.273 533.275 169.118 536.91 166.983C540.554 164.843 544.668 161.69 549.163 157.626C558.156 149.498 568.724 137.687 580.192 122.934C603.087 93.4812 629.607 52.2579 654.392 5.08194Z" stroke="black" stroke-opacity="0.2"/>
</svg>
