<svg width="194" height="194" viewBox="0 0 194 194" fill="none" xmlns="http://www.w3.org/2000/svg">
<path d="M96.9999 97C88.1082 97 80.4964 93.834 74.1645 87.5021C67.8326 81.1701 64.6666 73.5583 64.6666 64.6667C64.6666 55.775 67.8326 48.1632 74.1645 41.8313C80.4964 35.4993 88.1082 32.3333 96.9999 32.3333C105.892 32.3333 113.503 35.4993 119.835 41.8313C126.167 48.1632 129.333 55.775 129.333 64.6667C129.333 73.5583 126.167 81.1701 119.835 87.5021C113.503 93.834 105.892 97 96.9999 97ZM32.3333 161.667V139.033C32.3333 134.453 33.5121 130.243 35.8697 126.403C38.2273 122.564 41.3596 119.633 45.2666 117.613C53.6194 113.436 62.1069 110.304 70.7291 108.216C79.3513 106.127 88.1082 105.083 96.9999 105.083C105.892 105.083 114.649 106.127 123.271 108.216C131.893 110.304 140.38 113.436 148.733 117.613C152.64 119.633 155.772 122.564 158.13 126.403C160.488 130.243 161.667 134.453 161.667 139.033V161.667H32.3333ZM48.4999 145.5H145.5V139.033C145.5 137.551 145.129 136.204 144.388 134.992C143.647 133.779 142.671 132.836 141.458 132.163C134.183 128.525 126.841 125.797 119.431 123.978C112.021 122.159 104.544 121.25 96.9999 121.25C89.4555 121.25 81.9784 122.159 74.5687 123.978C67.1589 125.797 59.8166 128.525 52.5416 132.163C51.3291 132.836 50.3523 133.779 49.6114 134.992C48.8704 136.204 48.4999 137.551 48.4999 139.033V145.5ZM96.9999 80.8333C101.446 80.8333 105.252 79.2504 108.418 76.0844C111.584 72.9184 113.167 69.1125 113.167 64.6667C113.167 60.2208 111.584 56.4149 108.418 53.249C105.252 50.083 101.446 48.5 96.9999 48.5C92.5541 48.5 88.7482 50.083 85.5822 53.249C82.4162 56.4149 80.8332 60.2208 80.8332 64.6667C80.8332 69.1125 82.4162 72.9184 85.5822 76.0844C88.7482 79.2504 92.5541 80.8333 96.9999 80.8333Z" fill="#C8C6C6"/>
</svg>
