<svg width="221" height="221" viewBox="0 0 221 221" fill="none" xmlns="http://www.w3.org/2000/svg">
<path d="M32.2995 188.266C16.876 172.843 6.37246 153.192 2.11712 131.799C-2.13821 110.406 0.0457778 88.2319 8.3929 68.0802C16.74 47.9284 30.8754 30.7044 49.0115 18.5863C67.1476 6.46814 88.4698 9.93302e-05 110.282 9.57766e-05C132.094 9.22229e-05 153.416 6.46813 171.552 18.5863C189.688 30.7044 203.824 47.9284 212.171 68.0802C220.518 88.2319 222.702 110.406 218.447 131.799C214.191 153.192 203.688 172.843 188.264 188.266L186.705 186.707C201.82 171.592 212.113 152.334 216.283 131.369C220.454 110.404 218.313 88.6729 210.133 68.9242C201.953 49.1755 188.1 32.296 170.327 20.4202C152.554 8.54444 131.658 2.20577 110.282 2.20577C88.9061 2.20577 68.0103 8.54445 50.2369 20.4202C32.4635 32.296 18.6109 49.1755 10.4307 68.9243C2.2505 88.673 0.110191 110.404 4.28042 131.369C8.45064 152.334 18.7441 171.592 33.8591 186.707L32.2995 188.266Z" fill="url(#paint0_linear_373_1116)"/>
<path d="M36.3524 184.215C21.7302 169.593 11.7723 150.963 7.738 130.681C3.70372 110.4 5.77426 89.3773 13.6878 70.2724C21.6013 51.1675 35.0023 34.8383 52.1963 23.3497C69.3902 11.861 89.6049 5.729 110.284 5.729C130.963 5.729 151.177 11.861 168.371 23.3497C185.565 34.8383 198.966 51.1675 206.88 70.2724C214.793 89.3773 216.864 110.4 212.83 130.681C208.795 150.963 198.838 169.593 184.215 184.215L169.429 169.429C181.127 157.731 189.093 142.827 192.321 126.602C195.548 110.377 193.892 93.5586 187.561 78.2747C181.23 62.9908 170.509 49.9274 156.754 40.7365C142.999 31.5456 126.827 26.64 110.284 26.64C93.7406 26.64 77.569 31.5456 63.8138 40.7365C50.0586 49.9274 39.3378 62.9908 33.007 78.2747C26.6762 93.5586 25.0197 110.377 28.2472 126.602C31.4746 142.827 39.4409 157.731 51.1387 169.429L36.3524 184.215Z" fill="#161616"/>
<rect x="107.419" y="15.7549" width="5.72903" height="11.4581" fill="#050505"/>
<defs>
<linearGradient id="paint0_linear_373_1116" x1="196.5" y1="229.5" x2="57.4981" y2="65.0679" gradientUnits="userSpaceOnUse">
<stop stop-color="#D0021B" stop-opacity="0.5"/>
<stop offset="0.378125" stop-color="#161616"/>
</linearGradient>
</defs>
</svg>
