<svg width="238" height="238" viewBox="0 0 238 238" fill="none" xmlns="http://www.w3.org/2000/svg">
<path d="M203.102 203.102C219.736 186.468 231.064 165.275 235.653 142.203C240.242 119.132 237.887 95.2171 228.885 73.484C219.882 51.7509 204.638 33.1753 185.079 20.1062C165.519 7.03706 142.524 0.0614566 119 0.0614646C95.4762 0.0614725 72.4807 7.03709 52.9214 20.1062C33.3621 33.1753 18.1175 51.7509 9.11539 73.4841C0.11324 95.2172 -2.24213 119.132 2.34714 142.203C6.93641 165.275 18.2642 186.468 34.898 203.102L36.58 201.42C20.2789 185.119 9.17768 164.35 4.68019 141.739C0.182713 119.129 2.49097 95.6928 11.3131 74.3944C20.1352 53.0959 35.0749 34.8918 54.243 22.0841C73.4111 9.27634 95.9467 2.44023 119 2.44023C142.053 2.44022 164.589 9.27631 183.757 22.084C202.925 34.8917 217.865 53.0958 226.687 74.3943C235.509 95.6928 237.817 119.129 233.32 141.739C228.822 164.35 217.721 185.119 201.42 201.42L203.102 203.102Z" fill="#161616"/>
<path d="M39.2675 198.733C23.4978 182.963 12.7585 162.871 8.40761 140.998C4.05676 119.125 6.28977 96.4527 14.8243 75.8486C23.3588 55.2445 37.8115 37.6338 56.3547 25.2437C74.8979 12.8535 96.6988 6.24023 119.001 6.24023C141.302 6.24023 163.103 12.8535 181.646 25.2437C200.19 37.6338 214.642 55.2445 223.177 75.8486C231.711 96.4528 233.944 119.125 229.594 140.998C225.243 162.871 214.503 182.963 198.734 198.733L182.787 182.786C195.403 170.171 203.994 154.097 207.475 136.599C210.956 119.1 209.169 100.962 202.342 84.4789C195.514 67.9956 183.952 53.907 169.117 43.9949C154.283 34.0827 136.842 28.7922 119.001 28.7922C101.159 28.7922 83.7185 34.0827 68.8839 43.9949C54.0493 53.907 42.4872 67.9956 35.6595 84.4789C28.8319 100.962 27.0455 119.1 30.5262 136.599C34.0069 154.097 42.5983 170.171 55.2141 182.786L39.2675 198.733Z" fill="#161616"/>
<rect x="115.911" y="17.0527" width="6.17861" height="12.3572" fill="#050505"/>
</svg>
