<svg width="221" height="221" viewBox="0 0 221 221" fill="none" xmlns="http://www.w3.org/2000/svg">
<path d="M32.3014 188.266C16.8779 172.843 6.3744 153.192 2.11907 131.799C-2.13625 110.406 0.0477348 88.2318 8.39486 68.0801C16.742 47.9283 30.8773 30.7043 49.0134 18.5862C67.1495 6.46804 88.4718 -2.60107e-07 110.284 0C132.096 2.60107e-07 153.418 6.46804 171.554 18.5862C189.69 30.7043 203.826 47.9283 212.173 68.0801C220.52 88.2318 222.704 110.406 218.449 131.799C214.193 153.192 203.69 172.843 188.266 188.266L186.707 186.707C201.822 171.592 212.115 152.334 216.285 131.369C220.456 110.404 218.315 88.6728 210.135 68.9241C201.955 49.1754 188.102 32.2959 170.329 20.4201C152.556 8.54435 131.66 2.20567 110.284 2.20567C88.908 2.20567 68.0122 8.54435 50.2388 20.4201C32.4655 32.2959 18.6128 49.1754 10.4326 68.9241C2.25245 88.6728 0.112144 110.404 4.28237 131.369C8.45259 152.334 18.746 171.592 33.861 186.707L32.3014 188.266Z" fill="url(#paint0_linear_373_1126)"/>
<path d="M36.3524 184.215C21.7302 169.593 11.7723 150.963 7.738 130.681C3.70372 110.4 5.77426 89.3773 13.6878 70.2724C21.6013 51.1675 35.0023 34.8383 52.1963 23.3497C69.3902 11.861 89.6049 5.729 110.284 5.729C130.963 5.729 151.177 11.861 168.371 23.3497C185.565 34.8383 198.966 51.1675 206.88 70.2724C214.793 89.3773 216.864 110.4 212.83 130.681C208.795 150.963 198.838 169.593 184.215 184.215L169.429 169.429C181.127 157.731 189.093 142.827 192.321 126.602C195.548 110.377 193.892 93.5586 187.561 78.2747C181.23 62.9908 170.509 49.9274 156.754 40.7365C142.999 31.5456 126.827 26.64 110.284 26.64C93.7406 26.64 77.569 31.5456 63.8138 40.7365C50.0586 49.9274 39.3378 62.9908 33.007 78.2747C26.6762 93.5586 25.0197 110.377 28.2472 126.602C31.4746 142.827 39.4409 157.731 51.1387 169.429L36.3524 184.215Z" fill="#161616"/>
<rect x="107.419" y="15.7549" width="5.72903" height="11.4581" fill="#050505"/>
<defs>
<linearGradient id="paint0_linear_373_1126" x1="33" y1="188" x2="57.5" y2="155.5" gradientUnits="userSpaceOnUse">
<stop stop-color="#D0021B" stop-opacity="0.5"/>
<stop offset="0.378125" stop-color="#161616"/>
</linearGradient>
</defs>
</svg>
