<svg width="100" height="50" viewBox="0 0 100 50" fill="none" xmlns="http://www.w3.org/2000/svg">
<path opacity="0.2" d="M-4.37114e-07 5C-1.95703e-07 2.23858 2.23858 1.95703e-07 5 4.37115e-07L95 8.30516e-06C97.7614 8.54657e-06 100 2.23859 100 5.00001L100 45C100 47.7614 97.7614 50 95 50L5 50C2.23857 50 -4.17544e-06 47.7614 -3.93402e-06 45L-4.37114e-07 5Z" fill="#44576E"/>
<mask id="path-2-inside-1_547_3453" fill="white">
<path d="M-4.37114e-07 5C-1.95703e-07 2.23858 2.23858 1.95703e-07 5 4.37115e-07L95 8.30516e-06C97.7614 8.54657e-06 100 2.23859 100 5.00001L100 45C100 47.7614 97.7614 50 95 50L5 50C2.23857 50 -4.17544e-06 47.7614 -3.93402e-06 45L-4.37114e-07 5Z"/>
</mask>
<path d="M-3.93402e-06 45L0.999996 45L-3.93402e-06 45ZM95 8.30516e-06L95 -0.999992L95 8.30516e-06ZM5 4.37115e-07L5 1L5 4.37115e-07ZM-4.37114e-07 5L-1 5L-4.37114e-07 5ZM5 1L95 1.00001L95 -0.999992L5 -1L5 1ZM99 5.00001L99 45L101 45L101 5.00001L99 5.00001ZM95 49L5 49L5 51L95 51L95 49ZM0.999996 45L1 5L-1 5L-1 45L0.999996 45ZM5 49C2.79086 49 0.999996 47.2091 0.999996 45L-1 45C-1 48.3137 1.68629 51 5 51L5 49ZM99 45C99 47.2091 97.2091 49 95 49L95 51C98.3137 51 101 48.3137 101 45L99 45ZM95 1.00001C97.2091 1.00001 99 2.79087 99 5.00001L101 5.00001C101 1.6863 98.3137 -0.999991 95 -0.999992L95 1.00001ZM5 -1C1.68629 -1 -1 1.68629 -1 5L1 5C1 2.79086 2.79086 1 5 1L5 -1Z" fill="#ADC9D9" mask="url(#path-2-inside-1_547_3453)"/>
</svg>
