<svg width="429" height="210" viewBox="0 0 429 210" fill="none" xmlns="http://www.w3.org/2000/svg">
<mask id="path-1-inside-1_466_3422" fill="white">
<path fill-rule="evenodd" clip-rule="evenodd" d="M408.396 210C419.442 210 428.396 201.046 428.396 190L428.397 20C428.397 8.9543 419.442 -7.8281e-07 408.397 -1.74845e-06L106.585 -2.81336e-05C101.518 -2.85766e-05 96.6396 1.92341 92.9359 5.38164L6.35058 86.2276C2.29968 90.01 -8.15257e-05 95.3037 -8.20102e-05 100.846L-8.98043e-05 190C-9.07699e-05 201.046 8.95419 210 19.9999 210L408.396 210Z"/>
</mask>
<path d="M428.396 190L429.396 190L428.396 190ZM428.397 20L427.397 20L428.397 20ZM408.397 -1.74845e-06L408.397 -1L408.397 -1.74845e-06ZM6.35058 86.2276L7.03304 86.9585L6.35058 86.2276ZM106.585 -2.81336e-05L106.585 0.999972L106.585 -2.81336e-05ZM92.9359 5.38164L93.6184 6.11256L92.9359 5.38164ZM427.396 190C427.396 200.493 418.89 209 408.396 209L408.396 211C419.994 211 429.396 201.598 429.396 190L427.396 190ZM427.397 20L427.396 190L429.396 190L429.397 20L427.397 20ZM408.397 0.999998C418.89 0.999999 427.397 9.50658 427.397 20L429.397 20C429.397 8.40202 419.994 -1 408.397 -1L408.397 0.999998ZM106.585 0.999972L408.397 0.999998L408.397 -1L106.585 -1.00003L106.585 0.999972ZM92.2534 4.65073L5.66811 85.4967L7.03304 86.9585L93.6184 6.11256L92.2534 4.65073ZM0.99991 190L0.999918 100.846L-1.00008 100.846L-1.00009 190L0.99991 190ZM19.9999 209C9.50648 209 0.999909 200.493 0.99991 190L-1.00009 190C-1.00009 201.598 8.40191 211 19.9999 211L19.9999 209ZM408.396 209L19.9999 209L19.9999 211L408.396 211L408.396 209ZM5.66811 85.4967C1.41467 89.4682 -1.00008 95.0266 -1.00008 100.846L0.999918 100.846C0.999918 95.5808 3.18469 90.5518 7.03304 86.9585L5.66811 85.4967ZM106.585 -1.00003C101.265 -1.00003 96.1424 1.01958 92.2534 4.65073L93.6184 6.11256C97.1369 2.82724 101.771 0.999971 106.585 0.999972L106.585 -1.00003Z" fill="#0091FF" mask="url(#path-1-inside-1_466_3422)"/>
</svg>
